<svg width="40" height="40" viewBox="0 0 40 40" fill="none" xmlns="http://www.w3.org/2000/svg">
<path d="M40 19.9987C40.0022 31.0213 31.0144 40.0054 19.9911 39.9998C8.96778 39.9943 -0.00666295 31.0068 3.71185e-06 19.9798C0.00667038 8.96061 9.00445 -0.0146115 20.03 -0.000138924C31.0367 0.0143337 39.9967 8.98733 40 19.9987ZM2.66778 19.9809C2.65223 29.5239 10.43 37.318 19.9822 37.3324C29.5278 37.3469 37.3178 29.5729 37.3333 20.0177C37.3489 10.4736 29.5767 2.68397 20.0189 2.66727C10.4767 2.64946 2.68223 10.4268 2.66778 19.9809Z" fill="#536271"/>
<path d="M20.9555 21.3315C21.58 21.4439 22.2133 21.5174 22.8255 21.6755C26.5922 22.6485 29.3078 24.9006 30.9489 28.4308C31.3644 29.3237 30.8611 30.2477 29.9255 30.3735C29.3344 30.4525 28.8011 30.133 28.5111 29.5007C27.7944 27.9376 26.7422 26.6563 25.33 25.6732C20.59 22.3757 14.0144 24.1336 11.5567 29.3604C11.3544 29.7901 11.1155 30.1709 10.6367 30.3167C10.0967 30.4804 9.60888 30.3624 9.23554 29.936C8.85221 29.4985 8.79666 28.9897 9.03332 28.4587C9.95554 26.3924 11.3467 24.7125 13.2144 23.4356C14.8944 22.2855 16.75 21.5987 18.7811 21.4016C18.8722 21.3927 18.9622 21.3638 19.0589 21.3148C16.8189 20.9708 14.9767 19.9466 13.6155 18.1386C12.2444 16.3184 11.73 14.2522 12.1144 12.0089C12.8122 7.93877 16.4111 5.10214 20.5055 5.34595C24.4944 5.58308 27.7589 8.85499 27.9889 12.8472C28.2233 16.9251 25.3455 20.7014 20.9555 21.3337V21.3315ZM25.3333 13.3248C25.3311 10.3969 22.9333 8 20.0033 7.99888C17.0722 7.99888 14.6722 10.3891 14.6678 13.3181C14.6622 16.2672 17.0689 18.6719 20.0178 18.6652C22.9455 18.6585 25.3344 16.2572 25.3333 13.3248Z" fill="#536271"/>
</svg>
