<svg width="60" height="60" viewBox="0 0 60 60" fill="none" xmlns="http://www.w3.org/2000/svg">
<circle opacity="0.6" cx="30" cy="30" r="30" fill="#536271"/>
<path d="M24.66 29.9239C24.9589 30.2369 25.1435 30.4355 25.3341 30.6261C29.3047 34.5926 33.2812 38.5512 37.2438 42.5237C39.2481 44.5341 38.7987 47.6139 36.3469 48.8277C34.8041 49.5901 33.1187 49.2651 31.7504 47.9068C29.0117 45.1902 26.2871 42.4595 23.5565 39.7349C21.2692 37.4517 18.976 35.1765 16.7008 32.8812C14.9392 31.1056 14.9472 28.8705 16.7188 27.0969C21.7307 22.0831 26.7546 17.0812 31.7684 12.0694C32.888 10.9518 34.2022 10.4884 35.741 10.9418C37.1475 11.3551 38.0624 12.3121 38.3974 13.7427C38.7465 15.2354 38.257 16.4833 37.1796 17.5527C33.2351 21.4731 29.3046 25.4076 25.3662 29.332C25.1716 29.5266 24.9449 29.6871 24.66 29.9219L24.66 29.9239Z" fill="white"/>
</svg>
