<svg width="20" height="20" viewBox="0 0 20 20" fill="none" xmlns="http://www.w3.org/2000/svg">
<path d="M7.363 14.6953C8.52252 14.6546 9.62028 14.3959 10.6485 13.8656C10.7909 13.7921 10.8683 13.8044 10.9812 13.9173C12.7878 15.7325 14.6 17.5421 16.4105 19.3534C16.9713 19.9144 17.6384 20.1342 18.4068 19.9183C19.1941 19.6968 19.7138 19.1687 19.9258 18.3791C20.1227 17.6434 19.9224 16.9912 19.3883 16.4509C18.7106 15.7642 18.0251 15.0853 17.343 14.4031C16.1996 13.2596 15.0579 12.1144 13.9106 10.9747C13.8049 10.8701 13.791 10.7972 13.8605 10.6598C15.9943 6.47736 13.6853 1.38179 9.13734 0.22657C5.0779 -0.804563 0.973961 1.7869 0.142714 5.90643C-0.663498 9.90186 2.03277 13.8533 6.04269 14.5428C6.4789 14.6179 6.9229 14.6457 7.363 14.6958V14.6953ZM13.3309 7.33042C13.3325 10.6369 10.6379 13.333 7.33185 13.3319C4.033 13.3308 1.34452 10.647 1.33673 7.34712C1.32894 4.04004 4.01798 1.34062 7.32573 1.33616C10.6318 1.33116 13.3292 4.0239 13.3314 7.33098L13.3309 7.33042ZM13.0827 11.9942C13.0938 12.0086 13.1345 12.0754 13.1879 12.1294C13.9663 12.9107 14.7469 13.6903 15.5269 14.4704C16.4884 15.432 17.4487 16.3953 18.4118 17.3546C18.6088 17.5505 18.7112 17.7736 18.6344 18.048C18.552 18.3418 18.3573 18.5404 18.0652 18.6306C17.782 18.718 17.5533 18.6145 17.3519 18.4125C15.592 16.6496 13.8305 14.8889 12.0695 13.1271C12.0356 13.0932 12.0044 13.0565 12.0117 13.0643C12.3644 12.7115 12.7116 12.3642 13.0821 11.9936L13.0827 11.9942Z" fill="white"/>
<path d="M2.00162 7.22014C2.0044 7.27189 1.99884 7.37094 2.01776 7.46499C2.08452 7.80054 2.39833 8.0298 2.73383 7.99753C3.07601 7.96414 3.32861 7.68368 3.33473 7.31641C3.34976 6.39045 3.63129 5.55686 4.21661 4.83846C5.00669 3.8691 6.0349 3.36939 7.28678 3.336C7.80089 3.32209 8.12582 2.88749 7.95723 2.43564C7.85486 2.1613 7.61116 1.99381 7.28956 2.00438C5.3077 2.06782 3.79042 2.94703 2.74718 4.62923C2.26591 5.40495 2.04057 6.26413 2.00218 7.22014H2.00162Z" fill="white"/>
</svg>
