<svg width="30" height="30" viewBox="0 0 30 30" fill="none" xmlns="http://www.w3.org/2000/svg">
<path d="M11.1464 24.1958C10.5739 24.1958 10.062 24.2103 9.55 24.1934C8.06813 24.1441 6.7475 22.9147 6.7983 21.4431C6.85877 19.6913 6.45323 18.0324 6.07994 16.3566C5.18098 12.3227 4.28686 8.28804 3.38145 4.2558C3.32098 3.98537 3.21939 3.71494 3.08475 3.47357C2.87593 3.10062 2.56473 2.88185 2.09549 2.92383C1.72543 2.95693 1.35053 2.93594 0.977237 2.92867C0.417705 2.91576 -0.00637733 2.48791 7.25956e-05 1.95028C0.00652252 1.42233 0.421737 1.00337 0.970787 0.998525C1.55451 0.993682 2.15354 0.931523 2.71952 1.03485C4.07885 1.28268 4.82865 2.22959 5.1834 3.49133C5.45752 4.4673 5.63892 5.46991 5.86145 6.46122C5.88563 6.56778 5.91304 6.67272 5.94368 6.79704H6.34197C13.5272 6.79704 20.7124 6.79785 27.8976 6.79462C28.2362 6.79462 28.541 6.85516 28.7716 7.11913C29.007 7.38876 29.0683 7.69632 28.9804 8.04829C28.2556 10.935 27.5356 13.8226 26.8148 16.7101C26.7366 17.0225 26.6641 17.3358 26.5818 17.6465C26.157 19.253 24.7614 20.3315 23.1005 20.3323C18.4348 20.3339 13.7691 20.3323 9.10334 20.3323C8.98402 20.3323 8.86469 20.3323 8.72441 20.3323C8.72441 20.7303 8.68813 21.1129 8.73408 21.4859C8.7881 21.929 9.19283 22.2423 9.64675 22.264C9.74753 22.2689 9.84831 22.2657 9.94909 22.2657C15.9145 22.2657 21.8807 22.2657 27.846 22.2665C27.9863 22.2665 28.1314 22.2624 28.2669 22.2915C28.741 22.3956 29.0626 22.842 29.0207 23.3175C28.978 23.8035 28.5741 24.191 28.0677 24.1958C27.0704 24.2055 26.0723 24.199 25.075 24.199C24.9548 24.199 24.8339 24.199 24.7057 24.2176C25.4983 24.4105 26.1465 24.8134 26.598 25.4939C27.0478 26.172 27.1873 26.9179 27.0221 27.7154C26.7431 29.0603 25.4999 30.0307 24.1043 29.9976C22.6917 29.9645 21.5348 28.9158 21.3074 27.4636C21.0817 26.0218 21.9734 24.7956 23.6979 24.212H12.1187C13.9126 24.8537 14.7277 26.0396 14.4608 27.6032C14.2254 28.9804 13.0144 29.9992 11.6108 30C10.2361 30 9.00901 28.9933 8.76553 27.6662C8.47367 26.0727 9.26862 24.8909 11.1472 24.1966L11.1464 24.1958ZM6.36776 8.73849C7.08693 11.974 7.80046 15.1804 8.51559 18.3981H8.84293C13.5796 18.3981 18.3155 18.3981 23.0521 18.3981C23.9075 18.3981 24.5203 17.9113 24.7291 17.0774C25.3685 14.5217 26.0094 11.9667 26.6488 9.41093C26.7036 9.19297 26.7487 8.9734 26.8019 8.73849H6.36776ZM11.6124 28.065C12.1364 28.0634 12.5734 27.6275 12.5758 27.1035C12.5782 26.5675 12.1276 26.1235 11.5914 26.1332C11.069 26.1421 10.6376 26.5861 10.6433 27.11C10.6489 27.6331 11.0891 28.0666 11.6124 28.065ZM24.1736 28.065C24.6985 28.0714 25.1427 27.6436 25.1532 27.1197C25.1637 26.5958 24.738 26.1478 24.2155 26.1332C23.6802 26.1179 23.2239 26.5586 23.2206 27.093C23.2174 27.617 23.6503 28.0577 24.1736 28.065Z" fill="#4D4E56"/>
</svg>
