<svg width="30" height="32" viewBox="0 0 30 32" fill="none" xmlns="http://www.w3.org/2000/svg">
<path d="M11.4066 25.0094C10.8208 25.0094 10.2969 25.0251 9.77294 25.0068C8.25647 24.9538 6.90502 23.6296 6.957 22.0446C7.01888 20.1578 6.60387 18.3711 6.22187 16.5661C5.30193 12.2214 4.38693 7.8759 3.46039 3.53297C3.39851 3.2417 3.29455 2.95043 3.15676 2.69046C2.94307 2.28877 2.6246 2.05315 2.14441 2.09836C1.76571 2.13401 1.38205 2.1114 1.00005 2.10358C0.427457 2.08967 -0.00652621 1.62885 7.42903e-05 1.0498C0.00667479 0.481172 0.431582 0.0299236 0.993449 0.0247069C1.59079 0.0194901 2.20382 -0.047458 2.78301 0.0638324C4.17406 0.330756 4.94137 1.35063 5.3044 2.70959C5.58492 3.76076 5.77056 4.84063 5.99828 5.90832C6.02303 6.02309 6.05108 6.13612 6.08243 6.27001H6.49001C13.843 6.27001 21.1959 6.27088 28.5489 6.26741C28.8954 6.26741 29.2073 6.33262 29.4432 6.61693C29.6842 6.90733 29.7469 7.23859 29.6569 7.61767C28.9152 10.7269 28.1784 13.8369 27.4408 16.9469C27.3608 17.2834 27.2865 17.6208 27.2024 17.9555C26.7676 19.6857 25.3394 20.8473 23.6398 20.8482C18.8651 20.8499 14.0905 20.8482 9.31585 20.8482C9.19374 20.8482 9.07163 20.8482 8.92807 20.8482C8.92807 21.2768 8.89095 21.689 8.93797 22.0907C8.99325 22.568 9.40744 22.9053 9.87195 22.9288C9.97508 22.934 10.0782 22.9305 10.1813 22.9305C16.286 22.9305 22.3914 22.9305 28.4961 22.9314C28.6396 22.9314 28.7882 22.9271 28.9268 22.9584C29.4119 23.0705 29.7411 23.5513 29.6982 24.0634C29.6545 24.5869 29.2411 25.0042 28.723 25.0094C27.7024 25.0198 26.6809 25.0129 25.6603 25.0129C25.5374 25.0129 25.4136 25.0129 25.2825 25.0329C26.0935 25.2407 26.7568 25.6745 27.2189 26.4075C27.6793 27.1378 27.822 27.9412 27.6529 28.8002C27.3674 30.2488 26.0951 31.2938 24.667 31.2582C23.2215 31.2226 22.0375 30.0931 21.8048 28.529C21.5738 26.9761 22.4863 25.6554 24.2511 25.0268H12.4016C14.2373 25.718 15.0715 26.9953 14.7984 28.6794C14.5575 30.1627 13.3182 31.2599 11.8818 31.2608C10.4751 31.2608 9.21932 30.1766 8.97015 28.7472C8.67148 27.0309 9.48499 25.758 11.4074 25.0103L11.4066 25.0094ZM6.51642 8.36106C7.25237 11.8458 7.98255 15.2993 8.71438 18.765H9.04936C13.8966 18.765 18.743 18.765 23.5903 18.765C24.4656 18.765 25.0927 18.2407 25.3064 17.3425C25.9607 14.5898 26.6166 11.838 27.2709 9.08532C27.327 8.85056 27.3732 8.61407 27.4276 8.36106H6.51642ZM11.8834 29.1767C12.4197 29.175 12.8669 28.7055 12.8694 28.1412C12.8719 27.5639 12.4107 27.0857 11.862 27.0961C11.3274 27.1057 10.8859 27.5839 10.8917 28.1482C10.8975 28.7116 11.348 29.1785 11.8834 29.1767ZM24.7379 29.1767C25.275 29.1837 25.7296 28.7229 25.7404 28.1586C25.7511 27.5943 25.3155 27.1118 24.7808 27.0961C24.233 27.0796 23.766 27.5543 23.7627 28.1299C23.7594 28.6942 24.2025 29.1689 24.7379 29.1767Z" fill="white"/>
</svg>
