<svg width="35" height="35" viewBox="0 0 35 35" fill="none" xmlns="http://www.w3.org/2000/svg">
<path d="M17.4885 1.03944e-05C27.1492 -0.0104307 35.0198 7.84651 35 17.5129C34.9801 27.1406 27.286 34.9412 17.6712 34.9997C7.85072 35.0592 -0.0041737 27.2325 1.66382e-06 17.5004C0.00417702 7.84755 7.83611 0.0104515 17.4885 1.03944e-05ZM2.51879 17.4899C2.48539 25.6841 9.19623 32.4844 17.3497 32.5189C25.7547 32.5554 32.4697 25.9368 32.5198 17.5682C32.5689 9.34898 25.8591 2.54033 17.6816 2.51005C9.30062 2.47977 2.55219 9.14642 2.51879 17.4899V17.4899Z" fill="white"/>
<path d="M15.7358 17.4951C14.2723 16.0344 12.8391 14.6134 11.4184 13.1798C10.6951 12.45 11.0009 11.292 11.9727 11.054C12.4581 10.935 12.8642 11.102 13.2118 11.4508C14.5719 12.8165 15.9362 14.178 17.2994 15.5405C17.3548 15.5959 17.4122 15.647 17.5009 15.7295C17.6042 15.6303 17.7065 15.5374 17.8036 15.4403C19.1763 14.0683 20.5468 12.6953 21.9205 11.3244C22.3067 10.9391 22.7702 10.8253 23.2827 11.0164C23.7806 11.2023 24.0541 11.5802 24.0959 12.1085C24.1314 12.5554 23.9341 12.9052 23.6188 13.2143C22.2598 14.5445 20.909 15.882 19.5541 17.2163C19.4706 17.2988 19.3756 17.3677 19.2504 17.4721C19.3756 17.6027 19.4675 17.705 19.5646 17.801C20.955 19.173 22.3475 20.5439 23.7358 21.918C24.1084 22.2876 24.2493 22.7292 24.0729 23.2377C23.9007 23.7379 23.5406 24.0323 23.0176 24.1043C22.5708 24.1659 22.2118 23.9843 21.8996 23.67C20.55 22.3126 19.193 20.9616 17.8412 19.6063C17.7399 19.505 17.6523 19.3912 17.4268 19.1302C17.3318 19.315 17.2921 19.4706 17.1951 19.5698C15.8485 20.948 14.4936 22.32 13.1408 23.693C12.7723 24.0678 12.3328 24.2161 11.8235 24.0594C11.3464 23.9133 11.0594 23.5739 10.9706 23.0842C10.8871 22.6238 11.0594 22.249 11.383 21.9221C12.7295 20.5617 14.0719 19.196 15.4153 17.8324C15.5145 17.7321 15.6084 17.6277 15.7347 17.4941L15.7358 17.4951Z" fill="white"/>
</svg>
