<svg width="38" height="30" viewBox="0 0 60 52" fill="none" xmlns="http://www.w3.org/2000/svg">
<path d="M60 19.4575C59.9016 19.9096 59.8062 20.3618 59.7034 20.811C58.9327 24.1582 57.1784 27.0048 55.1363 29.6943C51.7715 34.125 47.6961 37.8553 43.4592 41.4169C39.4646 44.7758 35.2513 47.8426 30.9131 50.7391C30.3318 51.1267 29.7989 51.2192 29.1867 50.8111C21.7773 45.8666 14.7394 40.4626 8.55441 34.0207C5.84141 31.1962 3.43378 28.1367 1.6398 24.6192C-0.34063 20.7362 -0.436055 16.7474 0.864655 12.6823C2.29015 8.22821 5.02076 4.75916 9.06676 2.3941C12.5343 0.366693 16.2882 -0.362938 20.2784 0.181716C23.8253 0.666179 26.9141 2.13278 29.583 4.50372C29.699 4.60648 29.8223 4.70337 29.9706 4.82669C30.5945 4.33195 31.1994 3.81519 31.8424 3.35128C35.517 0.698477 39.6335 -0.411385 44.1169 0.136206C49.794 0.829135 54.1409 3.71683 57.2033 8.5277C58.7815 11.0073 59.6521 13.7379 59.9119 16.6652C59.9251 16.8164 59.9692 16.9632 60 17.113V19.4575ZM57.6555 18.0848C57.4867 13.9346 56.1493 10.4641 53.5214 7.49271C48.1571 1.42811 38.9948 0.620669 32.6543 5.68404C32.0465 6.16998 31.5003 6.73371 30.9205 7.25488C30.273 7.8377 29.7108 7.83477 29.0604 7.25048C28.9151 7.11982 28.7815 6.97595 28.6405 6.84235C24.3009 2.72295 19.217 1.35177 13.4739 3.03711C8.66451 4.44793 5.3775 7.68209 3.49397 12.3021C1.65741 16.8061 2.04058 21.1208 4.65228 25.271C6.36845 28.0002 8.39145 30.468 10.6185 32.7729C16.3308 38.6833 22.8167 43.6557 29.5875 48.2757C29.8957 48.4856 30.1042 48.4871 30.4037 48.2698C32.757 46.561 35.1456 44.9006 37.4754 43.1624C42.0543 39.7477 46.3631 36.0203 50.2535 31.8274C52.5172 29.3875 54.6019 26.811 56.114 23.8206C57.058 21.9547 57.7172 20.0109 57.6555 18.0848V18.0848Z" fill="#ffffff"/>
<path d="M53.68 17.3873C53.68 17.6207 53.7006 17.8571 53.6756 18.0891C53.611 18.6748 53.153 19.0888 52.579 19.1094C52.0284 19.1284 51.5381 18.779 51.4368 18.2197C51.265 17.2816 51.2269 16.3127 50.9744 15.3995C50.1728 12.5001 48.3862 10.4228 45.588 9.25127C45.3546 9.15291 45.108 9.08244 44.8819 8.97087C44.3049 8.68459 44.0598 8.12085 44.2521 7.56152C44.4503 6.9875 44.9773 6.61608 45.5939 6.81574C46.4586 7.09614 47.335 7.42646 48.1028 7.90211C51.6159 10.0749 53.3864 13.3061 53.68 17.3888V17.3873Z" fill="#ffffff"/>
<path d="M39.7185 7.62315C39.7302 6.99188 40.2426 6.48539 40.8738 6.47952C41.5257 6.47511 42.0674 7.01683 42.0542 7.66132C42.041 8.30727 41.4904 8.81816 40.8283 8.7976C40.1868 8.77705 39.7067 8.2691 39.7185 7.62168V7.62315Z" fill="#ffffff"/>
</svg>
