<svg width="67" height="31" viewBox="0 0 67 31" fill="none" xmlns="http://www.w3.org/2000/svg">
<g id="Logo Massive">
<g id="Capa 1">
<g id="Group">
<path id="Vector" d="M40.2123 7.16631V13.3677C40.2118 13.5252 40.1493 13.676 40.0386 13.7874C39.9278 13.8987 39.7778 13.9615 39.6211 13.962C39.5434 13.9626 39.4663 13.9476 39.3944 13.9179C39.3225 13.8882 39.2572 13.8445 39.2023 13.7891C39.1473 13.7338 39.1039 13.6681 39.0745 13.5957C39.0451 13.5234 39.0303 13.4459 39.031 13.3677V8.97759L37.5249 11.0608C37.4703 11.1358 37.399 11.1969 37.3166 11.2392C37.2343 11.2815 37.1432 11.3039 37.0508 11.3044C36.9587 11.3018 36.8684 11.2785 36.7864 11.2364C36.7043 11.1942 36.6327 11.1343 36.5766 11.0608L35.0601 8.97759V13.3677C35.0601 13.524 34.9983 13.6738 34.8884 13.7843C34.7786 13.8947 34.6295 13.9568 34.4741 13.9568C34.3187 13.9568 34.1697 13.8947 34.0598 13.7843C33.9499 13.6738 33.8882 13.524 33.8882 13.3677V7.0886C33.8882 7.07915 33.8986 7.06865 33.8986 7.0592V7.03505C33.9023 7.03117 33.905 7.02652 33.9067 7.02143C33.9083 7.01634 33.9088 7.01095 33.908 7.00565C33.908 6.9962 33.9174 6.98675 33.9174 6.9773C33.9174 6.96785 33.9268 6.9668 33.9268 6.95735C33.9268 6.9479 33.9373 6.9374 33.9373 6.92795C33.9409 6.92407 33.9437 6.91941 33.9453 6.91433C33.9469 6.90924 33.9474 6.90385 33.9467 6.89855L33.9655 6.87965C33.9655 6.8702 33.9759 6.8597 33.9759 6.85025L33.9947 6.8303C33.9947 6.82085 34.0052 6.8114 34.0146 6.80195C34.024 6.7925 34.024 6.79145 34.024 6.782L34.0532 6.7631C34.0534 6.75806 34.0555 6.75327 34.0589 6.7496C34.0624 6.74594 34.067 6.74365 34.072 6.74315C34.0725 6.73802 34.0747 6.73321 34.0783 6.72956C34.082 6.72592 34.0867 6.72367 34.0919 6.7232L34.1107 6.7043C34.1211 6.69485 34.1211 6.69485 34.1305 6.69485C34.1399 6.69485 34.1305 6.68435 34.1399 6.68435C34.1493 6.68435 34.1503 6.6749 34.1597 6.66545C34.1691 6.656 34.1785 6.656 34.189 6.656C34.1994 6.656 34.2078 6.6455 34.2078 6.63605C34.213 6.6367 34.2184 6.63619 34.2234 6.63456C34.2285 6.63293 34.2331 6.63021 34.237 6.6266C34.2464 6.6266 34.2569 6.6161 34.2663 6.6161C34.2757 6.6161 34.2851 6.60665 34.2955 6.60665C34.306 6.60665 34.3049 6.60665 34.3143 6.5972C34.3278 6.59775 34.3412 6.59448 34.353 6.58775H34.3728C34.3864 6.5881 34.3999 6.58445 34.4115 6.57724H34.5274C34.5351 6.57816 34.5421 6.5819 34.5472 6.58775H34.5765C34.5816 6.58711 34.5868 6.58762 34.5916 6.58926C34.5965 6.59089 34.601 6.5936 34.6047 6.5972H34.6339C34.6632 6.60664 34.6632 6.60664 34.6925 6.61609C34.7018 6.6266 34.7018 6.6266 34.7112 6.6266L34.7405 6.6455C34.7499 6.6455 34.7603 6.6455 34.7603 6.656C34.7603 6.6665 34.7791 6.66545 34.7895 6.6749C34.7967 6.67586 34.8033 6.67918 34.8083 6.68435L34.8376 6.7043L34.8574 6.7232C34.8668 6.7232 34.8762 6.7337 34.8856 6.74315C34.895 6.7526 34.8961 6.7526 34.8961 6.7631C34.8961 6.7736 34.9149 6.77255 34.9149 6.782C34.9149 6.79145 34.9347 6.80195 34.9347 6.8114C34.9347 6.82085 34.9441 6.8114 34.9535 6.82085L37.0424 9.7126L39.1438 6.82085C39.1438 6.8114 39.1438 6.8114 39.1532 6.8114C39.1626 6.8114 39.1637 6.79145 39.1731 6.782C39.1825 6.77255 39.1825 6.77255 39.1929 6.7631C39.2034 6.75365 39.2023 6.7526 39.2117 6.74315C39.2211 6.7337 39.2211 6.7232 39.2316 6.7232L39.2504 6.7043C39.2598 6.69485 39.2702 6.69485 39.2796 6.68435C39.289 6.67385 39.289 6.6749 39.2984 6.6749C39.3078 6.6749 39.3183 6.656 39.3277 6.656C39.3371 6.656 39.3381 6.6455 39.3475 6.6455L39.3767 6.6266C39.382 6.62714 39.3874 6.62638 39.3923 6.62436C39.3972 6.62235 39.4015 6.61915 39.4049 6.61505C39.4154 6.61505 39.4154 6.61505 39.4248 6.6056C39.4301 6.60625 39.4354 6.60574 39.4404 6.60411C39.4455 6.60248 39.4501 6.59976 39.454 6.59615H39.4833C39.487 6.59255 39.4914 6.58984 39.4963 6.58821C39.5012 6.58657 39.5064 6.58606 39.5115 6.5867H39.5407C39.5444 6.58277 39.549 6.57977 39.5541 6.57795C39.5592 6.57612 39.5646 6.57552 39.57 6.5762H39.6859C39.6897 6.58006 39.6943 6.58301 39.6993 6.58483C39.7044 6.58665 39.7098 6.58729 39.7151 6.5867H39.7444C39.7483 6.59031 39.7529 6.59303 39.758 6.59466C39.763 6.59629 39.7684 6.5968 39.7736 6.59615C39.7785 6.60153 39.7852 6.6049 39.7924 6.6056C39.8123 6.6056 39.8217 6.61505 39.8311 6.61505C39.8364 6.62055 39.8434 6.62422 39.8509 6.62555C39.8548 6.62916 39.8595 6.63188 39.8645 6.63351C39.8696 6.63514 39.8749 6.63565 39.8802 6.635L39.9094 6.65495C39.9145 6.66011 39.9211 6.66344 39.9282 6.6644L39.9575 6.6833L39.9669 6.6938L39.9773 6.70325C39.9822 6.7035 39.9868 6.70557 39.9903 6.70906C39.9938 6.71256 39.9959 6.71722 39.9961 6.72215C40.0055 6.72215 40.0159 6.73265 40.0253 6.7421L40.0441 6.76205C40.0441 6.7715 40.0546 6.7715 40.064 6.78095C40.0734 6.7904 40.0734 6.7904 40.0734 6.8009C40.0734 6.8114 40.0932 6.8198 40.0932 6.82925L40.112 6.8492C40.112 6.85865 40.1225 6.86915 40.1319 6.8786C40.1413 6.88805 40.1319 6.88805 40.1413 6.8975C40.1507 6.90695 40.1507 6.91745 40.1507 6.9269C40.1546 6.93064 40.1576 6.93525 40.1594 6.94035C40.1612 6.94546 40.1618 6.95092 40.1611 6.9563C40.1705 6.96575 40.1705 6.96575 40.1705 6.97625C40.1741 6.97997 40.1768 6.98445 40.1784 6.98936C40.18 6.99426 40.1806 6.99947 40.1799 7.0046C40.1799 7.0151 40.1893 7.02455 40.1893 7.034C40.1887 7.03938 40.1893 7.04485 40.1911 7.04995C40.1929 7.05506 40.1959 7.05967 40.1998 7.0634V7.15056C40.2029 7.15686 40.2123 7.15686 40.2123 7.16631Z" fill="white"/>
<path id="Vector_2" d="M45.6934 9.63919V13.3678C45.6931 13.4415 45.6783 13.5144 45.6499 13.5822C45.6214 13.6501 45.5799 13.7117 45.5276 13.7633C45.4754 13.815 45.4135 13.8557 45.3455 13.8831C45.2775 13.9106 45.2048 13.9242 45.1315 13.9233C44.8119 13.9233 44.6176 13.6702 44.6176 13.3678V13.2513C44.2119 13.6207 43.6841 13.8255 43.1366 13.8256C42.8295 13.8256 42.5254 13.7648 42.2417 13.6467C41.958 13.5285 41.7002 13.3553 41.483 13.137C41.2659 12.9187 41.0936 12.6595 40.9761 12.3743C40.8586 12.0891 40.7981 11.7834 40.7981 11.4746C40.7981 11.1659 40.8586 10.8602 40.9761 10.5749C41.0936 10.2897 41.2659 10.0305 41.483 9.81222C41.7002 9.59391 41.958 9.42074 42.2417 9.30259C42.5254 9.18444 42.8295 9.12363 43.1366 9.12363C43.6813 9.1295 44.2062 9.32971 44.6176 9.68854V9.63919C44.6176 9.33784 44.8119 9.08478 45.1315 9.08478C45.2047 9.08367 45.2774 9.09717 45.3454 9.12451C45.4134 9.15185 45.4753 9.19248 45.5276 9.24404C45.5798 9.29561 45.6214 9.35708 45.6499 9.42491C45.6783 9.49274 45.6931 9.56557 45.6934 9.63919ZM44.3471 11.4799C44.3502 11.2373 44.2814 10.9992 44.1495 10.7961C44.0176 10.5929 43.8285 10.4338 43.6064 10.339C43.3842 10.2442 43.139 10.2181 42.902 10.2639C42.665 10.3097 42.447 10.4253 42.2756 10.5962C42.1042 10.767 41.9872 10.9852 41.9396 11.2231C41.892 11.4609 41.9159 11.7076 42.0083 11.9318C42.1006 12.1559 42.2572 12.3474 42.4582 12.4818C42.6591 12.6162 42.8953 12.6874 43.1366 12.6863C43.4553 12.6845 43.7605 12.5571 43.9868 12.3315C44.2131 12.106 44.3425 11.8002 44.3471 11.4799Z" fill="white"/>
<path id="Vector_3" d="M48.3358 13.9715C47.7165 13.9715 47.0971 13.7184 46.7775 13.417C46.672 13.3107 46.6114 13.1674 46.6084 13.0172C46.6054 12.867 46.6602 12.7214 46.7614 12.6108C46.8626 12.5003 47.0024 12.4333 47.1515 12.4239C47.3007 12.4144 47.4477 12.4633 47.5619 12.5602C47.7363 12.7251 48.3849 12.9498 48.7526 12.7062C48.7994 12.6777 48.8381 12.6377 48.8652 12.5899C48.8922 12.5421 48.9067 12.4882 48.9072 12.4332C48.9023 12.3724 48.8799 12.3143 48.8428 12.266C48.8058 12.2178 48.7555 12.1814 48.6983 12.1612C48.5641 12.1148 48.4217 12.098 48.2805 12.1119C48.0211 12.1225 47.762 12.0869 47.5149 12.0069C47.262 11.9152 47.0395 11.7548 46.872 11.5434C46.7046 11.3321 46.5988 11.0781 46.5665 10.8098C46.5412 10.5884 46.5673 10.3641 46.6429 10.1545C46.7185 9.945 46.8415 9.75596 47.0021 9.60232C47.4867 9.15502 48.1928 9.08677 48.7066 9.17392C49.0489 9.22153 49.3693 9.37069 49.6268 9.60232C49.7389 9.70616 49.8059 9.85023 49.8131 10.0033C49.8203 10.1564 49.7673 10.3062 49.6654 10.4203C49.603 10.4875 49.5259 10.5393 49.4401 10.5713C49.3544 10.6034 49.2624 10.615 49.1714 10.6051C49.0821 10.5954 48.996 10.5656 48.9197 10.5179C48.803 10.4186 48.6626 10.3513 48.5124 10.3226C48.222 10.2743 47.6768 10.2932 47.7186 10.7122C47.7494 10.8012 47.8114 10.8758 47.893 10.9222C48.0235 10.9489 48.1569 10.9588 48.2899 10.9516C48.5416 10.9611 48.8612 10.961 49.1808 11.107C49.4389 11.2217 49.659 11.4081 49.8152 11.6444C49.9714 11.8807 50.0571 12.1569 50.0623 12.4405C50.0608 12.6874 49.9991 12.9301 49.8826 13.1474C49.766 13.3647 49.5982 13.55 49.3939 13.6869C49.0768 13.8846 48.7087 13.9836 48.3358 13.9715Z" fill="white"/>
<path id="Vector_4" d="M52.4709 13.9715C51.8515 13.9715 51.2312 13.7184 50.9126 13.417C50.807 13.3107 50.7464 13.1674 50.7434 13.0172C50.7404 12.867 50.7953 12.7214 50.8965 12.6108C50.9977 12.5003 51.1374 12.4333 51.2866 12.4239C51.4358 12.4144 51.5828 12.4633 51.697 12.5602C51.8704 12.7251 52.52 12.9498 52.8876 12.7062C52.9344 12.6777 52.9732 12.6377 53.0002 12.5899C53.0273 12.5421 53.0418 12.4882 53.0422 12.4332C53.0373 12.3724 53.015 12.3143 52.9779 12.266C52.9408 12.2178 52.8906 12.1814 52.8333 12.1612C52.6993 12.1146 52.5567 12.0977 52.4156 12.1119C52.1562 12.1225 51.897 12.0869 51.65 12.0069C51.3971 11.9151 51.1745 11.7546 51.0069 11.5433C50.8393 11.332 50.7333 11.0781 50.7006 10.8098C50.6757 10.5884 50.7022 10.3641 50.7779 10.1546C50.8536 9.94508 50.9766 9.75606 51.1372 9.60232C51.6207 9.15502 52.3278 9.08677 52.8417 9.17392C53.184 9.22153 53.5043 9.37069 53.7618 9.60232C53.874 9.70616 53.9409 9.85023 53.9482 10.0033C53.9554 10.1564 53.9023 10.3062 53.8005 10.4203C53.7381 10.4875 53.6609 10.5393 53.5752 10.5713C53.4894 10.6034 53.3974 10.615 53.3065 10.6051C53.2171 10.5954 53.1311 10.5656 53.0548 10.5179C52.938 10.4186 52.7977 10.3513 52.6474 10.3226C52.3571 10.2743 51.8119 10.2932 51.8536 10.7122C51.8844 10.8012 51.9465 10.8758 52.0281 10.9222C52.1586 10.9489 52.2919 10.9588 52.4249 10.9516C52.6767 10.9611 52.9963 10.961 53.3159 11.107C53.574 11.2217 53.7941 11.4081 53.9503 11.6444C54.1064 11.8807 54.1922 12.1569 54.1974 12.4405C54.1959 12.6874 54.1342 12.9301 54.0176 13.1474C53.9011 13.3647 53.7333 13.55 53.5289 13.6869C53.2119 13.8846 52.8438 13.9836 52.4709 13.9715Z" fill="white"/>
<path id="Vector_5" d="M55.5804 8.23734C55.4209 8.2396 55.2669 8.1784 55.1521 8.06709C55.0373 7.95578 54.9708 7.80336 54.9673 7.64303V7.59473C54.9673 7.4346 55.0305 7.28103 55.1432 7.1678C55.2558 7.05458 55.4085 6.99097 55.5678 6.99097C55.7271 6.99097 55.8799 7.05458 55.9925 7.1678C56.1051 7.28103 56.1684 7.4346 56.1684 7.59473V7.64303C56.1662 7.79944 56.1037 7.94888 55.994 8.05979C55.8842 8.17069 55.7359 8.23436 55.5804 8.23734ZM55.5804 13.9526C55.5008 13.9533 55.4219 13.9382 55.3481 13.9083C55.2744 13.8783 55.2072 13.834 55.1505 13.7779C55.0937 13.7219 55.0485 13.6551 55.0175 13.5815C54.9864 13.5079 54.97 13.4288 54.9694 13.3488V9.59081C54.9694 9.43069 55.0326 9.27712 55.1453 9.16389C55.2579 9.05066 55.4106 8.98705 55.5699 8.98705C55.7292 8.98705 55.8819 9.05066 55.9946 9.16389C56.1072 9.27712 56.1705 9.43069 56.1705 9.59081V13.3488C56.1702 13.5071 56.1083 13.6589 55.998 13.7718C55.8877 13.8847 55.7377 13.9496 55.5804 13.9526Z" fill="white"/>
<path id="Vector_6" d="M59.24 13.9327H59.2306C59.1252 13.9316 59.0223 13.901 58.9333 13.8442C58.8443 13.7874 58.7729 13.7068 58.7272 13.6113L56.9067 9.96043C56.8389 9.82224 56.8284 9.6627 56.8773 9.51669C56.9262 9.37069 57.0307 9.25011 57.1678 9.18132C57.2355 9.14831 57.3091 9.12908 57.3842 9.12473C57.4594 9.12038 57.5346 9.131 57.6056 9.15598C57.6767 9.18096 57.7421 9.2198 57.7982 9.27028C57.8543 9.32076 57.8998 9.38187 57.9323 9.45012L59.24 12.0752L60.5476 9.51312C60.617 9.38008 60.7357 9.2798 60.878 9.23394C61.0203 9.18808 61.1748 9.20031 61.3082 9.26799C61.4416 9.33566 61.5432 9.45336 61.591 9.59568C61.6389 9.738 61.6291 9.89352 61.5639 10.0287L59.7434 13.6113C59.6977 13.7068 59.6263 13.7874 59.5373 13.8442C59.4483 13.901 59.3454 13.9316 59.24 13.9327Z" fill="white"/>
<path id="Vector_7" d="M66.1353 11.8402H63.1524C63.2188 12.1184 63.3759 12.3663 63.5987 12.5444C63.8215 12.7225 64.0971 12.8206 64.3817 12.823C64.695 12.823 65.1473 12.697 65.399 12.4534C65.4536 12.3997 65.5183 12.3573 65.5892 12.3287C65.6602 12.3 65.736 12.2858 65.8125 12.2867C65.8889 12.2875 65.9644 12.3035 66.0347 12.3338C66.105 12.364 66.1686 12.4079 66.222 12.4628C66.2765 12.5172 66.3196 12.582 66.3487 12.6534C66.3778 12.7248 66.3923 12.8014 66.3914 12.8786C66.3906 12.9557 66.3743 13.0319 66.3436 13.1026C66.3128 13.1734 66.2683 13.2372 66.2126 13.2903C65.68 13.8069 64.9342 13.9822 64.3817 13.9822C63.7457 13.969 63.1402 13.7057 62.6951 13.2488C62.2499 12.7919 62.0006 12.1778 62.0006 11.5383C62.0006 10.8988 62.2499 10.2847 62.6951 9.82782C63.1402 9.37094 63.7457 9.10763 64.3817 9.09438C64.5247 9.09271 64.6675 9.10573 64.8078 9.13323C65.1328 9.19789 65.4405 9.33108 65.7106 9.52402C65.9806 9.71695 66.2069 9.96526 66.3745 10.2526C66.5301 10.5256 66.7046 10.8826 66.6878 11.207C66.6789 11.305 66.6528 11.4007 66.6106 11.4895C66.5757 11.5892 66.5117 11.6761 66.4269 11.7387C66.3421 11.8013 66.2405 11.8366 66.1353 11.8402ZM63.3153 10.8563H65.3698C65.2764 10.6754 65.1342 10.5246 64.9594 10.4213C64.7846 10.318 64.5844 10.2664 64.3817 10.2725C64.1695 10.2712 63.9604 10.3241 63.7741 10.4262C63.5878 10.5283 63.4303 10.6763 63.3164 10.8563H63.3153Z" fill="white"/>
<path id="Vector_8" d="M38.9871 20.4964C38.9203 21.6357 37.8936 22.2972 36.9734 22.4337C36.8161 22.4529 36.6578 22.4627 36.4993 22.4631C35.5499 22.4631 34.6099 22.0641 34.0291 21.3722C33.9311 21.2543 33.8833 21.1023 33.896 20.9492C33.9087 20.796 33.9809 20.6541 34.097 20.5542C34.2127 20.4562 34.3624 20.4083 34.5132 20.4211C34.664 20.4339 34.8035 20.5063 34.9013 20.6225C35.3274 21.1191 36.0919 21.3921 36.8084 21.285C37.2836 21.2168 37.8059 20.9249 37.8351 20.4282C37.8644 19.9903 37.5218 19.5808 37.0507 19.4737C36.8403 19.4308 36.6263 19.4079 36.4115 19.4055C35.9081 19.3761 35.3462 19.3477 34.8229 18.9855C34.1158 18.4993 33.768 17.6131 33.9811 16.834C34.213 15.9877 34.9879 15.3346 35.9081 15.1991C36.8044 15.0758 37.7129 15.3135 38.4357 15.8606C38.5513 15.9578 38.6246 16.0965 38.6402 16.2472C38.6558 16.3979 38.6125 16.5488 38.5193 16.6679C38.4261 16.787 38.2904 16.8649 38.1411 16.8851C37.9917 16.9053 37.8404 16.8663 37.7192 16.7762C37.4855 16.5974 37.2185 16.4674 36.934 16.394C36.6494 16.3206 36.3532 16.3052 36.0627 16.3489C35.6073 16.4171 35.201 16.7384 35.0945 17.1469C34.9973 17.4881 35.2104 17.8483 35.482 18.0331C35.7337 18.2085 36.0731 18.2274 36.47 18.2431C36.7508 18.2522 37.0302 18.2849 37.3056 18.3408C38.3145 18.5686 39.0404 19.5031 38.9871 20.4964Z" fill="white"/>
<path id="Vector_9" d="M44.8412 20.0386C44.8404 20.6916 44.582 21.3177 44.1227 21.7795C43.6633 22.2413 43.0406 22.5011 42.391 22.5019C41.9061 22.499 41.4321 22.3569 41.0248 22.0924V24.3709C41.0282 24.4503 41.0155 24.5296 40.9876 24.6039C40.9597 24.6782 40.9171 24.7461 40.8624 24.8035C40.8077 24.8608 40.742 24.9064 40.6694 24.9376C40.5967 24.9688 40.5185 24.9849 40.4394 24.9849C40.3604 24.9849 40.2822 24.9688 40.2095 24.9376C40.1368 24.9064 40.0711 24.8608 40.0165 24.8035C39.9618 24.7461 39.9192 24.6782 39.8913 24.6039C39.8633 24.5296 39.8507 24.4503 39.854 24.3709V18.1758C39.8544 18.0985 39.87 18.022 39.8999 17.9507C39.9299 17.8795 39.9735 17.8148 40.0283 17.7606C40.0832 17.7063 40.1481 17.6635 40.2195 17.6346C40.2908 17.6057 40.3672 17.5912 40.4441 17.592C40.5684 17.5927 40.6894 17.6325 40.7902 17.7057C40.8909 17.7789 40.9664 17.882 41.006 18.0005C41.4131 17.7184 41.8966 17.5689 42.391 17.5721C43.0411 17.5729 43.6643 17.8331 44.1238 18.2956C44.5832 18.7581 44.8412 19.385 44.8412 20.0386ZM43.6694 20.0386C43.6694 19.7844 43.5944 19.5359 43.4539 19.3245C43.3135 19.1132 43.1138 18.9484 42.8802 18.8512C42.6466 18.7539 42.3896 18.7284 42.1416 18.778C41.8936 18.8276 41.6658 18.95 41.487 19.1298C41.3082 19.3095 41.1865 19.5385 41.1371 19.7878C41.0878 20.0371 41.1131 20.2956 41.2099 20.5304C41.3066 20.7652 41.4705 20.966 41.6807 21.1072C41.891 21.2484 42.1381 21.3238 42.391 21.3238C42.7296 21.3224 43.054 21.1866 43.2934 20.9458C43.5329 20.7051 43.668 20.379 43.6694 20.0386Z" fill="white"/>
<path id="Vector_10" d="M50.1763 18.1494V21.878C50.1762 21.9517 50.1615 22.0245 50.1332 22.0924C50.1048 22.1603 50.0634 22.2218 50.0112 22.2735C49.959 22.3252 49.8972 22.3659 49.8293 22.3934C49.7613 22.4208 49.6886 22.4345 49.6154 22.4335C49.2958 22.4335 49.1016 22.1805 49.1016 21.878V21.7615C48.6954 22.131 48.1672 22.3357 47.6195 22.3359C46.9993 22.3359 46.4045 22.0882 45.9659 21.6473C45.5274 21.2064 45.281 20.6084 45.281 19.9849C45.281 19.3613 45.5274 18.7634 45.9659 18.3225C46.4045 17.8816 46.9993 17.6339 47.6195 17.6339C48.1645 17.6395 48.6898 17.8397 49.1016 18.1988V18.1494C49.1016 17.8481 49.2958 17.595 49.6154 17.595C49.6886 17.594 49.7612 17.6077 49.829 17.6351C49.8969 17.6625 49.9587 17.7031 50.0108 17.7547C50.063 17.8062 50.1045 17.8676 50.1329 17.9354C50.1613 18.0032 50.176 18.0759 50.1763 18.1494ZM48.831 19.9901C48.8342 19.7476 48.7654 19.5096 48.6335 19.3064C48.5017 19.1033 48.3126 18.9442 48.0905 18.8494C47.8684 18.7545 47.6233 18.7283 47.3863 18.774C47.1494 18.8197 46.9313 18.9353 46.7599 19.106C46.5884 19.2767 46.4714 19.4949 46.4237 19.7326C46.376 19.9704 46.3997 20.2171 46.4919 20.4413C46.5841 20.6655 46.7405 20.857 46.9413 20.9915C47.1421 21.126 47.3782 21.1974 47.6195 21.1966C47.9383 21.195 48.2438 21.0677 48.4704 20.8421C48.6969 20.6165 48.8264 20.3106 48.831 19.9901Z" fill="white"/>
<path id="Vector_11" d="M53.5174 22.4338C52.8894 22.4351 52.2856 22.1907 51.8338 21.7523C51.3723 21.3008 51.105 20.6857 51.0891 20.0387C51.0815 19.7181 51.1385 19.3992 51.2566 19.1013C51.3747 18.8034 51.5515 18.5326 51.7763 18.3051C52.2203 17.8399 52.8293 17.5704 53.4704 17.5554C53.7892 17.5493 54.106 17.6073 54.4021 17.7262C54.6983 17.845 54.9678 18.0222 55.1948 18.2473C55.2502 18.2993 55.2947 18.362 55.3257 18.4315C55.3567 18.5011 55.3736 18.5761 55.3753 18.6523C55.3771 18.7285 55.3637 18.8043 55.3359 18.8752C55.3081 18.9461 55.2665 19.0108 55.2136 19.0653C55.1608 19.1209 55.0976 19.1655 55.0277 19.1966C54.9577 19.2276 54.8824 19.2445 54.806 19.2463C54.7295 19.248 54.6535 19.2346 54.5822 19.2068C54.5109 19.179 54.4458 19.1373 54.3906 19.0842C54.1484 18.8512 53.8255 18.722 53.4902 18.724C53.3234 18.7261 53.1587 18.7616 53.0057 18.8285C52.8527 18.8954 52.7146 18.9923 52.5993 19.1136C52.3705 19.3583 52.2454 19.6829 52.2505 20.0187C52.2592 20.3532 52.3979 20.671 52.6369 20.904C52.8758 21.1369 53.196 21.2666 53.5289 21.2651C53.8454 21.2634 54.1497 21.1419 54.3812 20.9249C54.4361 20.8723 54.5009 20.8313 54.5718 20.8042C54.6427 20.7772 54.7183 20.7647 54.7941 20.7674C54.8699 20.7702 54.9444 20.7881 55.0132 20.8202C55.082 20.8523 55.1437 20.8979 55.1948 20.9543C55.247 21.0105 55.2876 21.0765 55.3144 21.1486C55.3412 21.2206 55.3536 21.2972 55.3509 21.3741C55.3481 21.4509 55.3304 21.5265 55.2986 21.5964C55.2668 21.6664 55.2216 21.7293 55.1655 21.7817C54.7287 22.1919 54.1558 22.4243 53.5581 22.4338H53.5174Z" fill="white"/>
<path id="Vector_12" d="M60.0443 20.3504H57.0614C57.1282 20.6287 57.2855 20.8765 57.5084 21.0546C57.7313 21.2326 58.007 21.3307 58.2917 21.3332C58.6051 21.3332 59.0563 21.2072 59.308 20.9636C59.3626 20.9097 59.4274 20.8672 59.4984 20.8385C59.5694 20.8098 59.6454 20.7955 59.722 20.7964C59.7985 20.7973 59.8742 20.8133 59.9445 20.8436C60.0149 20.874 60.0786 20.918 60.1321 20.9731C60.1865 21.0275 60.2295 21.0924 60.2585 21.1638C60.2875 21.2353 60.3019 21.3119 60.3009 21.389C60.3 21.4662 60.2836 21.5424 60.2528 21.6131C60.222 21.6837 60.1774 21.7475 60.1216 21.8005C59.5889 22.3171 58.8432 22.4925 58.2917 22.4925C57.6557 22.4792 57.0502 22.2159 56.6051 21.759C56.16 21.3021 55.9107 20.6881 55.9107 20.0486C55.9107 19.409 56.16 18.795 56.6051 18.3381C57.0502 17.8812 57.6557 17.6179 58.2917 17.6046C58.4347 17.603 58.5775 17.616 58.7179 17.6435C59.0428 17.7084 59.3503 17.8417 59.6204 18.0346C59.8904 18.2275 60.1167 18.4757 60.2845 18.7628C60.4391 19.0358 60.6135 19.3928 60.5979 19.7173C60.5891 19.8154 60.5625 19.9112 60.5195 19.9997C60.4847 20.0995 60.4207 20.1864 60.3359 20.2489C60.2511 20.3115 60.1494 20.3469 60.0443 20.3504ZM57.2243 19.3666H59.2777C59.1842 19.1858 59.0419 19.0351 58.8672 18.9319C58.6924 18.8286 58.4923 18.7769 58.2897 18.7828C58.0778 18.7818 57.8691 18.8348 57.6832 18.9369C57.4973 19.039 57.3401 19.1868 57.2264 19.3666H57.2243Z" fill="white"/>
<path id="Vector_13" d="M15.2813 29.9024C23.2705 29.9024 29.7469 23.3914 29.7469 15.3597C29.7469 7.32792 23.2705 0.816895 15.2813 0.816895C7.29222 0.816895 0.815758 7.32792 0.815758 15.3597C0.815758 23.3914 7.29222 29.9024 15.2813 29.9024Z" fill="#3F3F3F"/>
<path id="Vector_14" d="M15.2782 30.5861C6.92788 30.5861 0.133759 23.7557 0.133759 15.3608C0.133759 6.96587 6.92788 0.135498 15.2782 0.135498C23.6286 0.135498 30.4227 6.96587 30.4227 15.3608C30.4227 23.7557 23.6338 30.5861 15.2782 30.5861ZM15.2782 1.50052C7.67675 1.50052 1.49154 7.71874 1.49154 15.3608C1.49154 23.0028 7.68719 28.801 15.2782 29.221C22.0504 29.5938 29.0649 23.0028 29.0649 15.3608C29.0649 7.71874 22.8839 1.49947 15.2782 1.49947V1.50052Z" fill="white"/>
<path id="Vector_15" d="M8.61988 9.9531C8.61988 9.9531 11.8138 7.74806 20.2728 7.33646C20.2728 7.33646 16.4584 0.320228 6.0474 4.95921L5.51474 5.49367C5.51474 5.49367 8.61987 4.12865 11.2226 4.71981C11.2226 4.71981 7.84385 5.61443 6.34403 8.48728C6.24834 8.67177 6.10697 8.82836 5.93356 8.94194C5.40507 9.28634 4.24365 10.0686 3.55327 10.7028C3.47756 10.7722 3.41629 10.856 3.37301 10.9494C3.32973 11.0428 3.30529 11.1438 3.30111 11.2468C3.29694 11.3497 3.3131 11.4524 3.34867 11.549C3.38425 11.6456 3.43852 11.7342 3.50836 11.8095C4.252 12.6002 5.46043 14.5753 4.36062 18.3984C4.36062 18.3984 5.70691 18.5486 6.06516 20.4144C6.12937 20.7609 6.13678 21.1156 6.08709 21.4645C5.9722 22.3045 5.58889 23.9215 4.33242 24.3132C4.33242 24.3132 6.23123 30.6679 15.2814 29.6567V29.221C15.2814 29.221 9.9693 28.74 9.03348 25.4745C9.03348 25.4745 17.2104 30.5986 22.5517 24.7941C22.8223 24.499 22.275 23.9478 21.9909 24.2292L21.9407 24.2827C21.9407 24.2827 19.69 26.4468 16.3007 26.4468C16.3007 26.4468 9.45857 26.4174 7.08663 21.1274C6.76876 20.4101 6.60607 19.6331 6.60932 18.8478V14.9354C6.60554 14.2971 6.77025 13.6692 7.08663 13.1158C7.41883 12.5377 7.8974 12.0584 8.47365 11.7266C8.90312 11.4841 9.37453 11.3259 9.86277 11.2604C11.5454 11.0199 18.0094 10.1589 22.7972 10.4204C22.8683 10.4236 22.938 10.4412 23.0023 10.472C23.0665 10.5028 23.1239 10.5463 23.1711 10.5999C23.2784 10.7093 23.3473 10.8508 23.3675 11.0031C23.3688 11.0208 23.3738 11.038 23.3821 11.0537C23.3904 11.0693 23.4018 11.0831 23.4156 11.0942C23.4294 11.1052 23.4454 11.1132 23.4624 11.1178C23.4795 11.1224 23.4973 11.1234 23.5147 11.1207L23.6463 11.1018C23.6797 11.0973 23.7104 11.0807 23.7327 11.0553C23.7549 11.0298 23.7673 10.9971 23.7675 10.9632C23.7675 10.4897 23.663 8.78443 21.9919 8.52823C21.9877 8.52613 14.003 7.87512 8.61988 9.9531Z" fill="white"/>
<path id="Vector_16" d="M15.1853 25.4105C15.1853 25.4105 18.1755 26.2316 21.6107 23.6255C21.6107 23.6255 23.4082 22.1439 23.1116 16.6722C23.1116 16.6722 23.1116 11.8558 22.3429 11.3801H18.4387C18.4387 11.3801 20.7459 18.1654 15.1853 25.4105Z" fill="white"/>
<path id="Vector_17" d="M4.27697 23.2055H4.52868C4.55673 23.2057 4.58425 23.1978 4.60796 23.1827C4.63166 23.1676 4.65055 23.146 4.66237 23.1204C4.84724 22.7235 5.51568 21.0204 4.14015 19.6018C4.12655 19.5877 4.11032 19.5765 4.0924 19.5688C4.07448 19.561 4.05521 19.5569 4.0357 19.5566H3.72968C3.70004 19.5564 3.671 19.5651 3.64631 19.5816C3.62162 19.5981 3.60242 19.6216 3.59118 19.6492C3.57994 19.6768 3.57717 19.7071 3.58324 19.7363C3.58931 19.7654 3.60394 19.7921 3.62523 19.8129C4.01481 20.1909 4.9193 21.0214 4.13075 23.028C4.10255 23.1099 4.18401 23.2055 4.27697 23.2055Z" fill="white"/>
<path id="Vector_18" d="M3.08226 17.9553H3.43946C3.47965 17.9559 3.51916 17.9448 3.55325 17.9234C3.58734 17.9019 3.61456 17.8711 3.63164 17.8345C3.89379 17.2696 4.84737 14.842 2.88486 12.8207C2.86511 12.8001 2.8414 12.7839 2.81518 12.7728C2.78896 12.7618 2.76078 12.7563 2.73237 12.7566H2.30206C2.25861 12.7544 2.21555 12.7659 2.1789 12.7894C2.14225 12.813 2.11384 12.8475 2.09762 12.8881C2.0814 12.9287 2.0782 12.9733 2.08844 13.0158C2.09869 13.0583 2.12189 13.0966 2.15479 13.1252C2.70939 13.6638 3.99928 14.8483 2.87441 17.7064C2.82533 17.8303 2.95379 17.9553 3.08226 17.9553Z" fill="white"/>
<path id="Vector_19" d="M11.4837 16.0789L11.9652 14.4587L12.5501 16.0789L14.1408 16.6459L12.5303 17.1615L12.0175 18.8216L11.4837 17.1405L9.83144 16.6407L11.4837 16.0789Z" fill="white"/>
<path id="Vector_20" d="M12.0174 18.9971L11.4419 17.1837L9.66005 16.644L11.4408 16.0382L11.9631 14.292L12.5897 16.0371L14.3026 16.6482L12.5709 17.2037L12.0174 18.9971ZM10.0026 16.6377L11.5244 17.0987L12.0163 18.6475L12.4884 17.1155L13.9767 16.6388L12.5145 16.1138L11.9756 14.6196L11.5307 16.1138L10.0026 16.6377Z" fill="white"/>
<path id="Vector_21" d="M15.2782 30.7204C6.85365 30.7204 0 23.8291 0 15.3597C0 6.89023 6.85679 0 15.2782 0C23.6995 0 30.5605 6.89023 30.5605 15.3597C30.5605 23.8291 23.7058 30.7204 15.2782 30.7204ZM15.2782 0.420008C7.08761 0.420008 0.420912 7.12228 0.420912 15.3597C0.420912 23.5971 7.08761 30.3004 15.2782 30.3004C23.4687 30.3004 30.1396 23.5981 30.1396 15.3597C30.1396 7.12123 23.476 0.420008 15.2782 0.420008Z" fill="#3F3F3F"/>
</g>
</g>
</g>
</svg>
