<svg width="35" height="35" viewBox="0 0 35 35" fill="none" xmlns="http://www.w3.org/2000/svg">
<path d="M17.4833 1.04125e-05C27.1846 0.0104476 35.0125 7.84875 35 17.5407C34.9875 27.2441 27.1126 35.0198 17.3215 35C7.81747 34.9801 -0.019793 27.0615 3.75504e-05 17.4958C0.0198681 7.82683 7.85086 -0.0104267 17.4833 1.04125e-05ZM17.4437 32.5003C25.7516 32.517 32.47 25.832 32.4992 17.5177C32.5285 9.29534 25.8007 2.51641 17.595 2.50075C9.27762 2.48405 2.52061 9.15653 2.49974 17.4061C2.47886 25.7349 9.16177 32.4846 17.4437 32.5013V32.5003Z" fill="#4D4E56"/>
<path d="M17.5398 9.99998C19.5573 9.99998 21.5758 9.99998 23.5933 9.99998C24.4252 9.99998 24.994 10.5051 24.9982 11.241C25.0023 11.9789 24.4335 12.4986 23.61 12.4986C19.5354 12.4997 15.4607 12.5007 11.386 12.4986C10.5636 12.4986 9.99477 11.9757 10.001 11.2368C10.0073 10.4989 10.5719 9.99998 11.408 9.99998C13.4516 9.99893 15.4962 9.99998 17.5398 9.99998Z" fill="#4D4E56"/>
<path d="M17.4969 18.7504C15.4397 18.7504 13.3826 18.7546 11.3265 18.7484C10.3568 18.7452 9.73166 17.8602 10.1022 17.0137C10.3287 16.4971 10.7472 16.2497 11.3108 16.2497C12.3524 16.2497 13.3941 16.2497 14.4357 16.2497C17.5084 16.2497 20.58 16.2476 23.6527 16.2507C24.6244 16.2518 25.2527 17.1191 24.9083 17.9677C24.7111 18.4551 24.257 18.7473 23.6673 18.7473C21.6102 18.7504 19.553 18.7484 17.4969 18.7484V18.7504Z" fill="#4D4E56"/>
<path d="M17.5199 22.5004C19.5896 22.5004 21.6603 22.4973 23.73 22.5025C24.3291 22.5046 24.7831 22.8574 24.9501 23.4137C25.1025 23.923 24.9125 24.4929 24.4407 24.7737C24.2278 24.901 23.9554 24.9897 23.7101 24.9907C19.5708 25.0033 15.4303 25.0022 11.291 24.9981C10.5572 24.9981 10.0072 24.4532 10.003 23.7592C9.99781 23.0453 10.551 22.5046 11.3108 22.5025C13.3805 22.4973 15.4502 22.5004 17.5209 22.5004H17.5199Z" fill="#4D4E56"/>
</svg>
