<svg xmlns="http://www.w3.org/2000/svg" width="99" height="19" viewBox="0 0 99 19" fill="none">
    <path fill-rule="evenodd" clip-rule="evenodd"
        d="M88.7895 0.106297C88.6499 0.16936 88.4574 0.29579 88.3619 0.387243C88.2664 0.478697 87.702 1.57553 87.1077 2.82469C86.4808 4.14259 85.9584 5.14835 85.8632 5.22095C85.7487 5.30816 84.9869 5.45299 83.3452 5.69957C82.0506 5.89406 80.9055 6.08696 80.8005 6.12822C80.5346 6.23277 80.2107 6.56436 80.0919 6.85364C79.9507 7.19719 79.9675 7.74023 80.1297 8.07039C80.2055 8.22491 81.0561 9.14648 82.02 10.1186C83.6724 11.785 83.7724 11.9014 83.7724 12.1597C83.7724 12.3103 83.6061 13.4399 83.4029 14.6699C82.9809 17.2237 82.969 17.5968 83.2955 18.0425C83.5327 18.3664 83.9871 18.6072 84.354 18.6037C84.7099 18.6003 84.9507 18.4859 87.1721 17.2657C88.2522 16.6724 89.2102 16.1869 89.301 16.1869C89.3918 16.1869 90.4343 16.7195 91.6177 17.3705C94.0002 18.6811 94.1816 18.7448 94.766 18.4756C94.9463 18.3926 95.1865 18.198 95.2999 18.0433C95.627 17.5967 95.6152 17.2247 95.193 14.6699C94.9898 13.4399 94.8235 12.3106 94.8235 12.1603C94.8235 11.9027 94.9247 11.7848 96.5759 10.1196C97.5452 9.14224 98.39 8.22665 98.4663 8.07092C98.6276 7.74167 98.6453 7.19962 98.506 6.85243C98.3589 6.48601 97.9435 6.14487 97.5375 6.0572C97.3444 6.01557 96.2213 5.83849 95.0416 5.66383C93.5505 5.443 92.8468 5.30801 92.7328 5.22103C92.6375 5.14842 92.1148 4.14191 91.4882 2.82469C90.8939 1.57553 90.3294 0.47847 90.2335 0.386789C89.8356 0.00583421 89.2597 -0.105984 88.7895 0.106297ZM89.6059 0.913101C89.6706 0.965187 90.2337 2.07232 90.8572 3.37341C91.8655 5.4776 92.0215 5.76028 92.2682 5.93032C92.5122 6.09846 92.8415 6.16705 94.9992 6.49888C96.3485 6.70639 97.5116 6.90905 97.5836 6.94918C97.7402 7.03639 97.8044 7.19083 97.8044 7.47935C97.8044 7.65832 97.5176 7.9853 96.0337 9.49837C95.0598 10.4913 94.2092 11.4128 94.1434 11.5461C93.9615 11.9147 93.9933 12.3289 94.3867 14.7106C94.8142 17.2992 94.8205 17.4058 94.5592 17.6198C94.4539 17.7061 94.3043 17.7767 94.2269 17.7767C94.1495 17.7767 93.1151 17.2406 91.9283 16.5853C89.0566 14.9997 89.5393 14.9997 86.6676 16.5853C85.4808 17.2406 84.4464 17.7767 84.369 17.7767C84.2916 17.7767 84.142 17.7061 84.0367 17.6198C83.7754 17.4058 83.7817 17.2992 84.2092 14.7106C84.6029 12.3274 84.6346 11.9141 84.4519 11.5463C84.3858 11.4131 83.5352 10.4914 82.5616 9.49799C81.0805 7.98674 80.7915 7.65703 80.7915 7.4789C80.7915 7.19083 80.8559 7.03639 81.0123 6.94918C81.0844 6.90905 82.2474 6.70639 83.5967 6.49888C85.7589 6.1663 86.0833 6.09869 86.329 5.92941C86.5776 5.75809 86.7299 5.48183 87.7386 3.37258C88.3606 2.07186 88.9231 0.965187 88.9886 0.913101C89.054 0.86109 89.1933 0.818467 89.298 0.818467C89.4027 0.818467 89.5412 0.86109 89.6059 0.913101Z"
        fill="#536271" />
</svg>